<svg fill="#ffffffff" height="496pt" viewBox="0 0 496 496" width="496pt" xmlns="http://www.w3.org/2000/svg"><path d="m496 347.457031c0-24.746093-15.878906-46.257812-39.527344-53.519531l-64.472656-19.847656v-17.058594c14.792969-14.527344 24-34.710938 24-57.03125h8c22.054688 0 40-17.945312 40-40 0-13.015625-6.34375-24.488281-16-31.792969v-16.207031c0-61.761719-50.238281-112-112-112s-112 50.238281-112 112v16.207031c-9.65625 7.3125-16 18.785157-16 31.792969s6.34375 24.488281 16 31.792969v16.207031c0 13.230469 10.769531 24 24 24h14.726562c4.136719 9.433594 10.027344 17.910156 17.273438 25.03125v17.058594l-50.921875 15.671875c-23.4375-30.210938-59.972656-49.761719-101.078125-49.761719-70.574219 0-128 57.425781-128 128s57.425781 128 128 128c62.367188 0 114.390625-44.863281 125.664062-104h242.335938zm-72-163.457031h-8v-48h8c13.230469 0 24 10.769531 24 24s-10.769531 24-24 24zm-184-72c0-52.9375 43.0625-96 96-96s96 43.0625 96 96v8.808594c-2.585938-.527344-5.265625-.808594-8-.808594h-8v-16h-16v15.609375c-20.632812-1.839844-39.800781-10.730469-54.625-25.554687l-9.375-9.367188-9.375 9.367188c-14.824219 14.824218-33.992188 23.714843-54.625 25.554687v-15.609375h-16v16h-8c-2.734375 0-5.414062.28125-8 .808594zm8 24h8v48h-8c-13.230469 0-24-10.769531-24-24s10.769531-24 24-24zm0 80c-4.414062 0-8-3.59375-8-8v-8.808594c2.585938.527344 5.265625.808594 8 .808594h8c0 5.480469.558594 10.832031 1.617188 16zm49.472656 16c3.3125 9.289062 12.113282 16 22.527344 16h32c13.230469 0 24-10.769531 24-24s-10.769531-24-24-24h-32c-10.414062 0-19.214844 6.710938-22.527344 16h-23.367187c-1.328125-5.128906-2.105469-10.464844-2.105469-16v-64.375c24.015625-1.808594 46.425781-11.65625 64-28.359375 17.574219 16.710937 39.984375 26.550781 64 28.359375v64.375c0 35.289062-28.710938 64-64 64-23.625 0-44.257812-12.902344-55.34375-32zm14.527344-8c0-4.40625 3.585938-8 8-8h32c4.414062 0 8 3.59375 8 8s-3.585938 8-8 8h-32c-4.414062 0-8-3.59375-8-8zm24 56c14.574219 0 28.214844-3.984375 40-10.824219v10.03125c-3.808594 19-20.625 32.792969-40 32.792969s-36.191406-13.792969-40-32.800781v-10.023438c11.785156 6.839844 25.425781 10.824219 40 10.824219zm-200-23.59375c16.769531 1.195312 32.535156 6.027344 46.464844 13.816406l-46.464844 46.464844zm0 154.90625 92.480469-92.472656c5.800781 11.808594 9.664062 24.71875 10.976562 38.390625l-103.457031 103.457031zm84.167969-106.792969-84.167969 84.167969v-49.375l60.054688-60.054688c9.28125 7.132813 17.457031 15.621094 24.113281 25.261719zm-100.167969-48.113281v103.59375h-103.59375c3.9375-55.367188 48.226562-99.65625 103.59375-103.59375zm-103.59375 119.59375h103.59375v103.59375c-55.367188-3.9375-99.65625-48.226562-103.59375-103.59375zm123.570312 103.335938 99.367188-99.367188c-5.582031 52.214844-47.160156 93.792969-99.367188 99.367188zm340.023438-103.335938h-224.40625c.167969-2.65625.40625-5.296875.40625-8 0-23.488281-6.464844-45.441406-17.550781-64.382812l44.125-13.578126c7.90625 22.367188 29.160156 37.960938 53.425781 37.960938 24.070312 0 45.222656-15.335938 53.382812-37.976562l62.386719 19.191406c16.886719 5.199218 28.230469 20.570312 28.230469 38.242187zm0 0"/><path d="m304 168c0 4.417969-3.582031 8-8 8s-8-3.582031-8-8 3.582031-8 8-8 8 3.582031 8 8zm0 0"/><path d="m384 168c0 4.417969-3.582031 8-8 8s-8-3.582031-8-8 3.582031-8 8-8 8 3.582031 8 8zm0 0"/><path d="m48 328h56v16h-56zm0 0"/><path d="m72 296h32v16h-32zm0 0"/><path d="m48 392h56v16h-56zm0 0"/><path d="m72 424h32v16h-32zm0 0"/><path d="m166.320312 224.230469 33.03125-77.078125-14.703124-6.304688-14.96875 34.921875-19.566407-71.769531h-22.113281v-48h-16v48h-16v-32h-16v32h-16v-48h-16v48h-16v-16h-16v16h-16v16h137.886719zm0 0"/></svg>